<?xml version="1.0" encoding="UTF-8" standalone="no"?>
<svg
   xmlns:dc="http://purl.org/dc/elements/1.1/"
   xmlns:cc="http://creativecommons.org/ns#"
   xmlns:rdf="http://www.w3.org/1999/02/22-rdf-syntax-ns#"
   xmlns:svg="http://www.w3.org/2000/svg"
   xmlns="http://www.w3.org/2000/svg"
   xml:space="preserve"
   enable-background="new 0 0 200 28"
   viewBox="0 0 200 28"
   height="28px"
   width="200px"
   y="0px"
   x="0px"
   id="trustica_logo"
   version="1.0"><metadata
     id="metadata41"><rdf:RDF><cc:Work
         rdf:about=""><dc:format>image/svg+xml</dc:format><dc:type
           rdf:resource="http://purl.org/dc/dcmitype/StillImage" /><dc:title></dc:title></cc:Work></rdf:RDF></metadata><defs
     id="defs39" /><rect
     style="fill:#ffffff;fill-opacity:1"
     id="rect3"
     height="4"
     width="4"
     y="8"
     x="196" /><polygon
     style="fill:#ffffff;fill-opacity:1"
     id="polygon5"
     points="52,8 52,28 55.999,28 55.999,11.999 68,11.999 68,8 " /><polygon
     style="fill:#ffffff;fill-opacity:1"
     id="polygon7"
     points="120.006,24 120.006,24 120.006,12 120.006,12 127.994,12 127.994,8 120.006,8 120.006,0 116,0 116,28 132,28   132,24 " /><polygon
     style="fill:#ffffff;fill-opacity:1"
     id="polygon9"
     points="147.992,11.999 164,11.999 164,8 144,8 144,28 164,28 164,24 147.992,24 " /><path
     style="fill:#ffffff;fill-opacity:1"
     id="path11"
     d="M168,8v3.998h20v4h-20V28h24V8H168z M188,24h-15.992v-3.998H188V24z" /><polygon
     style="fill:#ffffff;fill-opacity:1"
     id="polygon13"
     points="84,8 80.007,8 80.007,24 80.007,24 68.007,24 68.007,15.998 64,15.998 64,28 84,28 " /><rect
     id="rect15"
     height="4"
     width="4"
     fill="#FF9800"
     y="0"
     x="136" /><polygon
     style="fill:#ffffff;fill-opacity:1"
     id="polygon17"
     points="36.004,12 48,12 48,8.003 36.004,8.003 36.004,8 36.004,0 32,0 32,28 48,28 48,24 36.004,24 " /><polygon
     style="fill:#ffffff;fill-opacity:1"
     id="polygon19"
     points="112,12 112,8.003 88,8 88,8.003 88,20.002 107.994,20.002 107.994,24 88,24 88,28 112,28 112,16 92.006,16   92.006,12 " /><polygon
     style="fill:#ffffff;fill-opacity:1"
     id="polygon21"
     points="132,8 132,11.999 135.992,11.999 135.992,28 140,28 140,8 " /><rect
     id="rect23"
     height="28"
     width="28"
     fill="#FF9800" /><g
     id="g25" /><g
     id="g27" /><g
     id="g29" /><g
     id="g31" /><g
     id="g33" /><g
     id="g35" /></svg>